<svg width="480" height="339" viewBox="0 0 480 339" fill="none" xmlns="http://www.w3.org/2000/svg">
<path d="M154.536 219.402H150.366L149.43 222H148.076L151.877 212.047H153.025L156.833 222H155.486L154.536 219.402ZM150.763 218.322H154.146L152.451 213.667L150.763 218.322ZM159.171 214.604L159.212 215.533C159.777 214.822 160.515 214.467 161.427 214.467C162.99 214.467 163.778 215.349 163.792 217.112V222H162.527V217.105C162.523 216.572 162.4 216.178 162.158 215.923C161.921 215.668 161.55 215.54 161.044 215.54C160.634 215.54 160.274 215.649 159.964 215.868C159.654 216.087 159.412 216.374 159.239 216.729V222H157.975V214.604H159.171ZM167.073 222H165.809V214.604H167.073V222ZM165.706 212.642C165.706 212.437 165.768 212.263 165.891 212.122C166.018 211.981 166.205 211.91 166.451 211.91C166.697 211.91 166.884 211.981 167.012 212.122C167.139 212.263 167.203 212.437 167.203 212.642C167.203 212.847 167.139 213.018 167.012 213.154C166.884 213.291 166.697 213.359 166.451 213.359C166.205 213.359 166.018 213.291 165.891 213.154C165.768 213.018 165.706 212.847 165.706 212.642ZM170.293 214.604L170.327 215.424C170.869 214.786 171.601 214.467 172.521 214.467C173.556 214.467 174.26 214.863 174.634 215.656C174.88 215.301 175.199 215.014 175.591 214.795C175.987 214.576 176.454 214.467 176.992 214.467C178.615 214.467 179.439 215.326 179.467 217.044V222H178.202V217.119C178.202 216.59 178.081 216.196 177.84 215.937C177.598 215.672 177.193 215.54 176.623 215.54C176.154 215.54 175.764 215.681 175.454 215.964C175.144 216.242 174.964 216.618 174.914 217.092V222H173.643V217.153C173.643 216.078 173.116 215.54 172.063 215.54C171.234 215.54 170.667 215.893 170.361 216.6V222H169.097V214.604H170.293ZM185.947 222C185.874 221.854 185.815 221.594 185.77 221.221C185.182 221.831 184.48 222.137 183.664 222.137C182.935 222.137 182.336 221.932 181.866 221.521C181.401 221.107 181.169 220.583 181.169 219.949C181.169 219.179 181.461 218.582 182.044 218.158C182.632 217.73 183.457 217.516 184.519 217.516H185.749V216.935C185.749 216.493 185.617 216.142 185.353 215.882C185.088 215.618 184.699 215.485 184.184 215.485C183.732 215.485 183.354 215.599 183.049 215.827C182.743 216.055 182.591 216.331 182.591 216.654H181.319C181.319 216.285 181.449 215.93 181.709 215.588C181.973 215.242 182.329 214.968 182.775 214.768C183.227 214.567 183.721 214.467 184.259 214.467C185.111 214.467 185.779 214.681 186.262 215.109C186.745 215.533 186.995 216.119 187.014 216.866V220.271C187.014 220.95 187.1 221.49 187.273 221.891V222H185.947ZM183.849 221.036C184.245 221.036 184.621 220.934 184.977 220.729C185.332 220.523 185.59 220.257 185.749 219.929V218.411H184.758C183.208 218.411 182.434 218.865 182.434 219.771C182.434 220.168 182.566 220.478 182.83 220.701C183.094 220.924 183.434 221.036 183.849 221.036ZM190.37 222H189.105V211.5H190.37V222ZM196.707 220.038C196.707 219.696 196.577 219.432 196.317 219.245C196.062 219.054 195.613 218.89 194.971 218.753C194.333 218.616 193.825 218.452 193.446 218.261C193.073 218.069 192.795 217.841 192.612 217.577C192.435 217.313 192.346 216.998 192.346 216.634C192.346 216.028 192.601 215.515 193.111 215.096C193.626 214.676 194.283 214.467 195.08 214.467C195.919 214.467 196.598 214.683 197.117 215.116C197.641 215.549 197.903 216.103 197.903 216.777H196.632C196.632 216.431 196.484 216.132 196.188 215.882C195.896 215.631 195.527 215.506 195.08 215.506C194.62 215.506 194.26 215.606 194 215.807C193.74 216.007 193.61 216.269 193.61 216.593C193.61 216.898 193.731 217.128 193.973 217.283C194.214 217.438 194.649 217.586 195.278 217.728C195.912 217.869 196.424 218.037 196.816 218.233C197.208 218.429 197.498 218.666 197.685 218.944C197.876 219.218 197.972 219.553 197.972 219.949C197.972 220.61 197.707 221.141 197.179 221.542C196.65 221.938 195.964 222.137 195.121 222.137C194.529 222.137 194.005 222.032 193.549 221.822C193.093 221.613 192.735 221.321 192.476 220.947C192.22 220.569 192.093 220.161 192.093 219.724H193.357C193.38 220.147 193.549 220.485 193.863 220.735C194.182 220.981 194.602 221.104 195.121 221.104C195.6 221.104 195.982 221.009 196.27 220.817C196.561 220.621 196.707 220.362 196.707 220.038ZM207.658 222C207.585 221.854 207.526 221.594 207.48 221.221C206.893 221.831 206.191 222.137 205.375 222.137C204.646 222.137 204.047 221.932 203.577 221.521C203.112 221.107 202.88 220.583 202.88 219.949C202.88 219.179 203.172 218.582 203.755 218.158C204.343 217.73 205.168 217.516 206.229 217.516H207.46V216.935C207.46 216.493 207.328 216.142 207.063 215.882C206.799 215.618 206.41 215.485 205.895 215.485C205.443 215.485 205.065 215.599 204.76 215.827C204.454 216.055 204.302 216.331 204.302 216.654H203.03C203.03 216.285 203.16 215.93 203.42 215.588C203.684 215.242 204.04 214.968 204.486 214.768C204.938 214.567 205.432 214.467 205.97 214.467C206.822 214.467 207.49 214.681 207.973 215.109C208.456 215.533 208.706 216.119 208.725 216.866V220.271C208.725 220.95 208.811 221.49 208.984 221.891V222H207.658ZM205.56 221.036C205.956 221.036 206.332 220.934 206.688 220.729C207.043 220.523 207.3 220.257 207.46 219.929V218.411H206.469C204.919 218.411 204.145 218.865 204.145 219.771C204.145 220.168 204.277 220.478 204.541 220.701C204.805 220.924 205.145 221.036 205.56 221.036ZM214.282 215.738C214.091 215.706 213.883 215.69 213.66 215.69C212.831 215.69 212.268 216.044 211.972 216.75V222H210.707V214.604H211.938L211.958 215.458C212.373 214.797 212.961 214.467 213.722 214.467C213.968 214.467 214.155 214.499 214.282 214.562V215.738ZM218.384 222.137C217.381 222.137 216.565 221.809 215.937 221.152C215.308 220.492 214.993 219.61 214.993 218.507V218.274C214.993 217.541 215.132 216.887 215.41 216.312C215.693 215.734 216.085 215.283 216.586 214.959C217.092 214.631 217.639 214.467 218.227 214.467C219.188 214.467 219.936 214.784 220.469 215.417C221.002 216.05 221.269 216.957 221.269 218.138V218.664H216.258C216.276 219.393 216.488 219.983 216.894 220.435C217.304 220.881 217.823 221.104 218.452 221.104C218.899 221.104 219.277 221.013 219.587 220.831C219.897 220.649 220.168 220.407 220.4 220.106L221.173 220.708C220.553 221.66 219.623 222.137 218.384 222.137ZM218.227 215.506C217.716 215.506 217.288 215.693 216.941 216.066C216.595 216.436 216.381 216.955 216.299 217.625H220.004V217.529C219.967 216.887 219.794 216.39 219.484 216.039C219.174 215.684 218.755 215.506 218.227 215.506ZM227.476 215.499C228.036 214.811 228.765 214.467 229.663 214.467C231.226 214.467 232.015 215.349 232.028 217.112V222H230.764V217.105C230.759 216.572 230.636 216.178 230.395 215.923C230.158 215.668 229.786 215.54 229.28 215.54C228.87 215.54 228.51 215.649 228.2 215.868C227.89 216.087 227.649 216.374 227.476 216.729V222H226.211V211.5H227.476V215.499ZM236.991 222.137C235.989 222.137 235.173 221.809 234.544 221.152C233.915 220.492 233.601 219.61 233.601 218.507V218.274C233.601 217.541 233.74 216.887 234.018 216.312C234.3 215.734 234.692 215.283 235.193 214.959C235.699 214.631 236.246 214.467 236.834 214.467C237.796 214.467 238.543 214.784 239.076 215.417C239.609 216.05 239.876 216.957 239.876 218.138V218.664H234.865C234.883 219.393 235.095 219.983 235.501 220.435C235.911 220.881 236.431 221.104 237.06 221.104C237.506 221.104 237.884 221.013 238.194 220.831C238.504 220.649 238.775 220.407 239.008 220.106L239.78 220.708C239.16 221.66 238.231 222.137 236.991 222.137ZM236.834 215.506C236.324 215.506 235.895 215.693 235.549 216.066C235.202 216.436 234.988 216.955 234.906 217.625H238.611V217.529C238.575 216.887 238.402 216.39 238.092 216.039C237.782 215.684 237.363 215.506 236.834 215.506ZM245.912 222C245.839 221.854 245.78 221.594 245.734 221.221C245.146 221.831 244.445 222.137 243.629 222.137C242.9 222.137 242.3 221.932 241.831 221.521C241.366 221.107 241.134 220.583 241.134 219.949C241.134 219.179 241.425 218.582 242.009 218.158C242.597 217.73 243.422 217.516 244.483 217.516H245.714V216.935C245.714 216.493 245.582 216.142 245.317 215.882C245.053 215.618 244.663 215.485 244.148 215.485C243.697 215.485 243.319 215.599 243.014 215.827C242.708 216.055 242.556 216.331 242.556 216.654H241.284C241.284 216.285 241.414 215.93 241.674 215.588C241.938 215.242 242.294 214.968 242.74 214.768C243.191 214.567 243.686 214.467 244.224 214.467C245.076 214.467 245.743 214.681 246.227 215.109C246.71 215.533 246.96 216.119 246.979 216.866V220.271C246.979 220.95 247.065 221.49 247.238 221.891V222H245.912ZM243.813 221.036C244.21 221.036 244.586 220.934 244.941 220.729C245.297 220.523 245.554 220.257 245.714 219.929V218.411H244.723C243.173 218.411 242.398 218.865 242.398 219.771C242.398 220.168 242.531 220.478 242.795 220.701C243.059 220.924 243.399 221.036 243.813 221.036ZM250.335 222H249.07V211.5H250.335V222ZM254.081 212.812V214.604H255.462V215.581H254.081V220.168C254.081 220.464 254.143 220.688 254.266 220.838C254.389 220.984 254.598 221.057 254.895 221.057C255.04 221.057 255.241 221.029 255.496 220.975V222C255.163 222.091 254.84 222.137 254.525 222.137C253.96 222.137 253.534 221.966 253.247 221.624C252.96 221.282 252.816 220.797 252.816 220.168V215.581H251.47V214.604H252.816V212.812H254.081ZM258.21 215.499C258.771 214.811 259.5 214.467 260.397 214.467C261.961 214.467 262.749 215.349 262.763 217.112V222H261.498V217.105C261.493 216.572 261.37 216.178 261.129 215.923C260.892 215.668 260.521 215.54 260.015 215.54C259.604 215.54 259.244 215.649 258.935 215.868C258.625 216.087 258.383 216.374 258.21 216.729V222H256.945V211.5H258.21V215.499ZM267.076 220.147L268.799 214.604H270.152L267.179 223.142C266.718 224.372 265.987 224.987 264.984 224.987L264.745 224.967L264.273 224.878V223.853L264.615 223.88C265.044 223.88 265.376 223.793 265.613 223.62C265.855 223.447 266.053 223.13 266.208 222.67L266.488 221.918L263.85 214.604H265.23L267.076 220.147ZM279.326 222C279.253 221.854 279.194 221.594 279.148 221.221C278.561 221.831 277.859 222.137 277.043 222.137C276.314 222.137 275.715 221.932 275.245 221.521C274.78 221.107 274.548 220.583 274.548 219.949C274.548 219.179 274.84 218.582 275.423 218.158C276.011 217.73 276.836 217.516 277.897 217.516H279.128V216.935C279.128 216.493 278.996 216.142 278.731 215.882C278.467 215.618 278.077 215.485 277.562 215.485C277.111 215.485 276.733 215.599 276.428 215.827C276.122 216.055 275.97 216.331 275.97 216.654H274.698C274.698 216.285 274.828 215.93 275.088 215.588C275.352 215.242 275.708 214.968 276.154 214.768C276.605 214.567 277.1 214.467 277.638 214.467C278.49 214.467 279.158 214.681 279.641 215.109C280.124 215.533 280.374 216.119 280.393 216.866V220.271C280.393 220.95 280.479 221.49 280.652 221.891V222H279.326ZM277.228 221.036C277.624 221.036 278 220.934 278.355 220.729C278.711 220.523 278.968 220.257 279.128 219.929V218.411H278.137C276.587 218.411 275.812 218.865 275.812 219.771C275.812 220.168 275.945 220.478 276.209 220.701C276.473 220.924 276.813 221.036 277.228 221.036ZM283.571 214.604L283.612 215.533C284.177 214.822 284.916 214.467 285.827 214.467C287.39 214.467 288.179 215.349 288.192 217.112V222H286.928V217.105C286.923 216.572 286.8 216.178 286.559 215.923C286.322 215.668 285.95 215.54 285.444 215.54C285.034 215.54 284.674 215.649 284.364 215.868C284.054 216.087 283.813 216.374 283.64 216.729V222H282.375V214.604H283.571ZM289.792 218.24C289.792 217.105 290.061 216.194 290.599 215.506C291.136 214.813 291.84 214.467 292.711 214.467C293.577 214.467 294.263 214.763 294.769 215.355V211.5H296.033V222H294.871L294.81 221.207C294.304 221.827 293.6 222.137 292.697 222.137C291.84 222.137 291.141 221.786 290.599 221.084C290.061 220.382 289.792 219.466 289.792 218.336V218.24ZM291.057 218.384C291.057 219.222 291.23 219.879 291.576 220.353C291.923 220.826 292.401 221.063 293.012 221.063C293.814 221.063 294.399 220.703 294.769 219.983V216.586C294.39 215.889 293.809 215.54 293.025 215.54C292.406 215.54 291.923 215.779 291.576 216.258C291.23 216.736 291.057 217.445 291.057 218.384ZM302.739 215.499C303.3 214.811 304.029 214.467 304.927 214.467C306.49 214.467 307.278 215.349 307.292 217.112V222H306.027V217.105C306.023 216.572 305.9 216.178 305.658 215.923C305.421 215.668 305.05 215.54 304.544 215.54C304.134 215.54 303.774 215.649 303.464 215.868C303.154 216.087 302.912 216.374 302.739 216.729V222H301.475V211.5H302.739V215.499ZM313.752 222C313.679 221.854 313.62 221.594 313.574 221.221C312.986 221.831 312.285 222.137 311.469 222.137C310.74 222.137 310.14 221.932 309.671 221.521C309.206 221.107 308.974 220.583 308.974 219.949C308.974 219.179 309.265 218.582 309.849 218.158C310.437 217.73 311.261 217.516 312.323 217.516H313.554V216.935C313.554 216.493 313.422 216.142 313.157 215.882C312.893 215.618 312.503 215.485 311.988 215.485C311.537 215.485 311.159 215.599 310.854 215.827C310.548 216.055 310.396 216.331 310.396 216.654H309.124C309.124 216.285 309.254 215.93 309.514 215.588C309.778 215.242 310.133 214.968 310.58 214.768C311.031 214.567 311.526 214.467 312.063 214.467C312.916 214.467 313.583 214.681 314.066 215.109C314.549 215.533 314.8 216.119 314.818 216.866V220.271C314.818 220.95 314.905 221.49 315.078 221.891V222H313.752ZM311.653 221.036C312.05 221.036 312.426 220.934 312.781 220.729C313.137 220.523 313.394 220.257 313.554 219.929V218.411H312.562C311.013 218.411 310.238 218.865 310.238 219.771C310.238 220.168 310.37 220.478 310.635 220.701C310.899 220.924 311.239 221.036 311.653 221.036ZM323.049 218.384C323.049 219.509 322.791 220.416 322.276 221.104C321.761 221.793 321.064 222.137 320.185 222.137C319.287 222.137 318.58 221.852 318.065 221.282V224.844H316.801V214.604H317.956L318.018 215.424C318.533 214.786 319.248 214.467 320.164 214.467C321.053 214.467 321.755 214.802 322.27 215.472C322.789 216.142 323.049 217.074 323.049 218.268V218.384ZM321.784 218.24C321.784 217.406 321.606 216.748 321.251 216.265C320.896 215.782 320.408 215.54 319.788 215.54C319.022 215.54 318.448 215.88 318.065 216.559V220.093C318.444 220.767 319.022 221.104 319.802 221.104C320.408 221.104 320.889 220.865 321.244 220.387C321.604 219.904 321.784 219.188 321.784 218.24ZM330.91 218.384C330.91 219.509 330.653 220.416 330.138 221.104C329.623 221.793 328.925 222.137 328.046 222.137C327.148 222.137 326.442 221.852 325.927 221.282V224.844H324.662V214.604H325.817L325.879 215.424C326.394 214.786 327.109 214.467 328.025 214.467C328.914 214.467 329.616 214.802 330.131 215.472C330.65 216.142 330.91 217.074 330.91 218.268V218.384ZM329.646 218.24C329.646 217.406 329.468 216.748 329.112 216.265C328.757 215.782 328.269 215.54 327.649 215.54C326.884 215.54 326.31 215.88 325.927 216.559V220.093C326.305 220.767 326.884 221.104 327.663 221.104C328.269 221.104 328.75 220.865 329.105 220.387C329.465 219.904 329.646 219.188 329.646 218.24ZM334.861 220.147L336.584 214.604H337.938L334.964 223.142C334.504 224.372 333.772 224.987 332.77 224.987L332.53 224.967L332.059 224.878V223.853L332.4 223.88C332.829 223.88 333.161 223.793 333.398 223.62C333.64 223.447 333.838 223.13 333.993 222.67L334.273 221.918L331.635 214.604H333.016L334.861 220.147Z" fill="#C5E1E6"/>
<g filter="url(#filter0_d_13_691)">
<circle cx="236.5" cy="120.5" r="72.5" fill="white"/>
</g>
<path d="M230 121C231.105 121 232 120.105 232 119C232 117.895 231.105 117 230 117C228.895 117 228 117.895 228 119C228 120.105 228.895 121 230 121Z" fill="#216E7A"/>
<path d="M244 121C245.105 121 246 120.105 246 119C246 117.895 245.105 117 244 117C242.895 117 242 117.895 242 119C242 120.105 242.895 121 244 121Z" fill="#216E7A"/>
<path d="M234.5 129C235.881 129 237 128.328 237 127.5C237 126.672 235.881 126 234.5 126C233.119 126 232 126.672 232 127.5C232 128.328 233.119 129 234.5 129Z" fill="#216E7A"/>
<path opacity="0.8" d="M257 119H253V113H257C258.105 113 259 113.895 259 115V117C259 118.105 258.105 119 257 119Z" fill="#216E7A"/>
<path d="M239.5 129C240.881 129 242 128.328 242 127.5C242 126.672 240.881 126 239.5 126C238.119 126 237 126.672 237 127.5C237 128.328 238.119 129 239.5 129Z" fill="#216E7A"/>
<path opacity="0.8" d="M217 119H221V113H217C215.895 113 215 113.895 215 115V117C215 118.105 215.895 119 217 119Z" fill="#216E7A"/>
<path opacity="0.8" d="M252.99 112.44C252.69 107.18 248.33 103 243 103C241.34 103 239.84 103.67 238.76 104.76C237.67 105.84 237 107.34 237 109C237 107.34 236.33 105.84 235.24 104.76C234.16 103.67 232.66 103 231 103C225.67 103 221.31 107.18 221.01 112.44C221.15 108.24 222.91 104.46 225.68 101.68C228.61 98.7599 232.53 96.9599 237 96.9999C241.47 96.9599 245.39 98.7599 248.32 101.68C251.09 104.46 252.85 108.24 252.99 112.44Z" fill="#216E7A"/>
<path d="M258 109H253.53C252.807 105.989 251.269 103.223 249.026 100.972C245.805 97.762 241.583 96 237.125 96C237.041 96 236.957 95.999 236.875 96C232.417 96 228.194 97.763 224.972 100.975C222.73 103.225 221.193 105.99 220.471 109.001H216C213.243 109.001 211 111.244 211 114.001V118.001C211 120.758 213.243 123.001 216 123.001H218.456C216.282 125.057 215 127.948 215 131V136C215 141.514 219.486 146 225 146H237H249C254.514 146 259 141.514 259 136V131C259 127.948 257.718 125.057 255.545 123H258C260.757 123 263 120.757 263 118V114C263 111.243 260.757 109 258 109ZM226.386 102.389C229.229 99.555 232.949 98 236.875 98C236.914 98 236.954 98 236.992 98L237 97L237.008 98C241.016 97.971 244.743 99.528 247.612 102.386C247.995 102.771 248.355 103.173 248.691 103.59C247.03 102.581 245.082 102 243 102C240.457 102 238.226 103.363 237 105.397C235.774 103.363 233.543 102 231 102C228.918 102 226.97 102.581 225.309 103.59C225.644 103.173 226.003 102.772 226.386 102.389ZM216 121C214.346 121 213 119.654 213 118V114C213 112.346 214.346 111 216 111H220V121H216ZM257 131V136C257 140.411 253.411 144 249 144H237H225C220.589 144 217 140.411 217 136V131C217 127.799 218.725 124.812 221.501 123.205L221.855 123H222V113C222 108.038 226.038 104 231 104C233.757 104 236 106.243 236 109V110H238V109C238 106.243 240.243 104 243 104C247.963 104 252 108.038 252 113V123H252.145L252.499 123.205C255.275 124.812 257 127.799 257 131ZM261 118C261 119.654 259.654 121 258 121H254V111H258C259.654 111 261 112.346 261 114V118ZM230 125C233.309 125 236 122.309 236 119C236 115.691 233.309 113 230 113C226.691 113 224 115.691 224 119C224 122.309 226.691 125 230 125ZM230 115C232.206 115 234 116.794 234 119C234 121.206 232.206 123 230 123C227.794 123 226 121.206 226 119C226 116.794 227.794 115 230 115ZM250 132H252V135C252 137.206 250.206 139 248 139H226C223.794 139 222 137.206 222 135V132H224V135C224 136.103 224.897 137 226 137H248C249.103 137 250 136.103 250 135V132ZM244 125C247.309 125 250 122.309 250 119C250 115.691 247.309 113 244 113C240.691 113 238 115.691 238 119C238 122.309 240.691 125 244 125ZM244 115C246.206 115 248 116.794 248 119C248 121.206 246.206 123 244 123C241.794 123 240 121.206 240 119C240 116.794 241.794 115 244 115Z" fill="#216E7A"/>
<defs>
<filter id="filter0_d_13_691" x="114" y="0" width="245" height="245" filterUnits="userSpaceOnUse" color-interpolation-filters="sRGB">
<feFlood flood-opacity="0" result="BackgroundImageFix"/>
<feColorMatrix in="SourceAlpha" type="matrix" values="0 0 0 0 0 0 0 0 0 0 0 0 0 0 0 0 0 0 127 0" result="hardAlpha"/>
<feOffset dy="2"/>
<feGaussianBlur stdDeviation="25"/>
<feColorMatrix type="matrix" values="0 0 0 0 0.72549 0 0 0 0 0.835294 0 0 0 0 0.85098 0 0 0 0.6 0"/>
<feBlend mode="normal" in2="BackgroundImageFix" result="effect1_dropShadow_13_691"/>
<feBlend mode="normal" in="SourceGraphic" in2="effect1_dropShadow_13_691" result="shape"/>
</filter>
</defs>
</svg>
