<svg width="480" height="339" viewBox="0 0 480 339" fill="none" xmlns="http://www.w3.org/2000/svg">
<path d="M88.3164 220.927H94.0107V222H86.7646V221.016L92.2197 213.127H86.8535V212.047H93.792V213.011L88.3164 220.927ZM95.0293 218.233C95.0293 217.509 95.1706 216.857 95.4531 216.278C95.7402 215.7 96.1367 215.253 96.6426 214.938C97.153 214.624 97.734 214.467 98.3857 214.467C99.3929 214.467 100.206 214.815 100.826 215.513C101.451 216.21 101.763 217.137 101.763 218.295V218.384C101.763 219.104 101.624 219.751 101.346 220.325C101.072 220.895 100.678 221.339 100.163 221.658C99.6527 221.977 99.0648 222.137 98.3994 222.137C97.3968 222.137 96.5833 221.788 95.959 221.091C95.3392 220.394 95.0293 219.471 95.0293 218.322V218.233ZM96.3008 218.384C96.3008 219.204 96.4899 219.863 96.8682 220.359C97.251 220.856 97.7614 221.104 98.3994 221.104C99.042 221.104 99.5524 220.854 99.9307 220.353C100.309 219.847 100.498 219.14 100.498 218.233C100.498 217.422 100.304 216.766 99.917 216.265C99.5342 215.759 99.0238 215.506 98.3857 215.506C97.7614 215.506 97.2578 215.754 96.875 216.251C96.4922 216.748 96.3008 217.459 96.3008 218.384ZM103.014 218.233C103.014 217.509 103.155 216.857 103.438 216.278C103.725 215.7 104.121 215.253 104.627 214.938C105.137 214.624 105.718 214.467 106.37 214.467C107.377 214.467 108.191 214.815 108.811 215.513C109.435 216.21 109.747 217.137 109.747 218.295V218.384C109.747 219.104 109.608 219.751 109.33 220.325C109.057 220.895 108.662 221.339 108.147 221.658C107.637 221.977 107.049 222.137 106.384 222.137C105.381 222.137 104.568 221.788 103.943 221.091C103.324 220.394 103.014 219.471 103.014 218.322V218.233ZM104.285 218.384C104.285 219.204 104.474 219.863 104.853 220.359C105.235 220.856 105.746 221.104 106.384 221.104C107.026 221.104 107.537 220.854 107.915 220.353C108.293 219.847 108.482 219.14 108.482 218.233C108.482 217.422 108.289 216.766 107.901 216.265C107.519 215.759 107.008 215.506 106.37 215.506C105.746 215.506 105.242 215.754 104.859 216.251C104.477 216.748 104.285 217.459 104.285 218.384ZM117.533 217.372L116.316 218.637V222H115.004V212.047H116.316V216.969L120.739 212.047H122.325L118.408 216.442L122.633 222H121.061L117.533 217.372ZM126.475 222.137C125.472 222.137 124.656 221.809 124.027 221.152C123.398 220.492 123.084 219.61 123.084 218.507V218.274C123.084 217.541 123.223 216.887 123.501 216.312C123.784 215.734 124.175 215.283 124.677 214.959C125.183 214.631 125.729 214.467 126.317 214.467C127.279 214.467 128.026 214.784 128.56 215.417C129.093 216.05 129.359 216.957 129.359 218.138V218.664H124.349C124.367 219.393 124.579 219.983 124.984 220.435C125.395 220.881 125.914 221.104 126.543 221.104C126.99 221.104 127.368 221.013 127.678 220.831C127.988 220.649 128.259 220.407 128.491 220.106L129.264 220.708C128.644 221.66 127.714 222.137 126.475 222.137ZM126.317 215.506C125.807 215.506 125.379 215.693 125.032 216.066C124.686 216.436 124.472 216.955 124.39 217.625H128.095V217.529C128.058 216.887 127.885 216.39 127.575 216.039C127.265 215.684 126.846 215.506 126.317 215.506ZM133.898 222.137C132.896 222.137 132.08 221.809 131.451 221.152C130.822 220.492 130.508 219.61 130.508 218.507V218.274C130.508 217.541 130.647 216.887 130.925 216.312C131.207 215.734 131.599 215.283 132.101 214.959C132.606 214.631 133.153 214.467 133.741 214.467C134.703 214.467 135.45 214.784 135.983 215.417C136.517 216.05 136.783 216.957 136.783 218.138V218.664H131.772C131.791 219.393 132.003 219.983 132.408 220.435C132.818 220.881 133.338 221.104 133.967 221.104C134.413 221.104 134.792 221.013 135.102 220.831C135.411 220.649 135.683 220.407 135.915 220.106L136.688 220.708C136.068 221.66 135.138 222.137 133.898 222.137ZM133.741 215.506C133.231 215.506 132.802 215.693 132.456 216.066C132.11 216.436 131.896 216.955 131.813 217.625H135.519V217.529C135.482 216.887 135.309 216.39 134.999 216.039C134.689 215.684 134.27 215.506 133.741 215.506ZM144.501 218.384C144.501 219.509 144.243 220.416 143.729 221.104C143.214 221.793 142.516 222.137 141.637 222.137C140.739 222.137 140.033 221.852 139.518 221.282V224.844H138.253V214.604H139.408L139.47 215.424C139.985 214.786 140.7 214.467 141.616 214.467C142.505 214.467 143.207 214.802 143.722 215.472C144.241 216.142 144.501 217.074 144.501 218.268V218.384ZM143.236 218.24C143.236 217.406 143.059 216.748 142.703 216.265C142.348 215.782 141.86 215.54 141.24 215.54C140.475 215.54 139.9 215.88 139.518 216.559V220.093C139.896 220.767 140.475 221.104 141.254 221.104C141.86 221.104 142.341 220.865 142.696 220.387C143.056 219.904 143.236 219.188 143.236 218.24ZM149.184 222.137C148.181 222.137 147.365 221.809 146.736 221.152C146.107 220.492 145.793 219.61 145.793 218.507V218.274C145.793 217.541 145.932 216.887 146.21 216.312C146.493 215.734 146.884 215.283 147.386 214.959C147.892 214.631 148.438 214.467 149.026 214.467C149.988 214.467 150.735 214.784 151.269 215.417C151.802 216.05 152.068 216.957 152.068 218.138V218.664H147.058C147.076 219.393 147.288 219.983 147.693 220.435C148.104 220.881 148.623 221.104 149.252 221.104C149.699 221.104 150.077 221.013 150.387 220.831C150.697 220.649 150.968 220.407 151.2 220.106L151.973 220.708C151.353 221.66 150.423 222.137 149.184 222.137ZM149.026 215.506C148.516 215.506 148.088 215.693 147.741 216.066C147.395 216.436 147.181 216.955 147.099 217.625H150.804V217.529C150.767 216.887 150.594 216.39 150.284 216.039C149.974 215.684 149.555 215.506 149.026 215.506ZM157.113 215.738C156.922 215.706 156.715 215.69 156.491 215.69C155.662 215.69 155.099 216.044 154.803 216.75V222H153.538V214.604H154.769L154.789 215.458C155.204 214.797 155.792 214.467 156.553 214.467C156.799 214.467 156.986 214.499 157.113 214.562V215.738ZM162.589 220.038C162.589 219.696 162.459 219.432 162.199 219.245C161.944 219.054 161.495 218.89 160.853 218.753C160.215 218.616 159.706 218.452 159.328 218.261C158.954 218.069 158.676 217.841 158.494 217.577C158.316 217.313 158.228 216.998 158.228 216.634C158.228 216.028 158.483 215.515 158.993 215.096C159.508 214.676 160.164 214.467 160.962 214.467C161.8 214.467 162.479 214.683 162.999 215.116C163.523 215.549 163.785 216.103 163.785 216.777H162.514C162.514 216.431 162.366 216.132 162.069 215.882C161.778 215.631 161.409 215.506 160.962 215.506C160.502 215.506 160.142 215.606 159.882 215.807C159.622 216.007 159.492 216.269 159.492 216.593C159.492 216.898 159.613 217.128 159.854 217.283C160.096 217.438 160.531 217.586 161.16 217.728C161.794 217.869 162.306 218.037 162.698 218.233C163.09 218.429 163.38 218.666 163.566 218.944C163.758 219.218 163.854 219.553 163.854 219.949C163.854 220.61 163.589 221.141 163.061 221.542C162.532 221.938 161.846 222.137 161.003 222.137C160.41 222.137 159.886 222.032 159.431 221.822C158.975 221.613 158.617 221.321 158.357 220.947C158.102 220.569 157.975 220.161 157.975 219.724H159.239C159.262 220.147 159.431 220.485 159.745 220.735C160.064 220.981 160.483 221.104 161.003 221.104C161.481 221.104 161.864 221.009 162.151 220.817C162.443 220.621 162.589 220.362 162.589 220.038ZM169.596 222V215.581H168.427V214.604H169.596V213.845C169.596 213.052 169.808 212.439 170.231 212.006C170.655 211.573 171.255 211.356 172.029 211.356C172.321 211.356 172.61 211.395 172.897 211.473L172.829 212.498C172.615 212.457 172.387 212.437 172.146 212.437C171.735 212.437 171.419 212.557 171.195 212.799C170.972 213.036 170.86 213.378 170.86 213.824V214.604H172.439V215.581H170.86V222H169.596ZM176.746 222.137C175.743 222.137 174.928 221.809 174.299 221.152C173.67 220.492 173.355 219.61 173.355 218.507V218.274C173.355 217.541 173.494 216.887 173.772 216.312C174.055 215.734 174.447 215.283 174.948 214.959C175.454 214.631 176.001 214.467 176.589 214.467C177.55 214.467 178.298 214.784 178.831 215.417C179.364 216.05 179.631 216.957 179.631 218.138V218.664H174.62C174.638 219.393 174.85 219.983 175.256 220.435C175.666 220.881 176.186 221.104 176.814 221.104C177.261 221.104 177.639 221.013 177.949 220.831C178.259 220.649 178.53 220.407 178.763 220.106L179.535 220.708C178.915 221.66 177.986 222.137 176.746 222.137ZM176.589 215.506C176.078 215.506 175.65 215.693 175.304 216.066C174.957 216.436 174.743 216.955 174.661 217.625H178.366V217.529C178.33 216.887 178.157 216.39 177.847 216.039C177.537 215.684 177.118 215.506 176.589 215.506ZM184.17 222.137C183.167 222.137 182.352 221.809 181.723 221.152C181.094 220.492 180.779 219.61 180.779 218.507V218.274C180.779 217.541 180.918 216.887 181.196 216.312C181.479 215.734 181.871 215.283 182.372 214.959C182.878 214.631 183.425 214.467 184.013 214.467C184.974 214.467 185.722 214.784 186.255 215.417C186.788 216.05 187.055 216.957 187.055 218.138V218.664H182.044C182.062 219.393 182.274 219.983 182.68 220.435C183.09 220.881 183.609 221.104 184.238 221.104C184.685 221.104 185.063 221.013 185.373 220.831C185.683 220.649 185.954 220.407 186.187 220.106L186.959 220.708C186.339 221.66 185.41 222.137 184.17 222.137ZM184.013 215.506C183.502 215.506 183.074 215.693 182.728 216.066C182.381 216.436 182.167 216.955 182.085 217.625H185.79V217.529C185.754 216.887 185.58 216.39 185.271 216.039C184.961 215.684 184.541 215.506 184.013 215.506ZM188.217 218.24C188.217 217.105 188.486 216.194 189.023 215.506C189.561 214.813 190.265 214.467 191.136 214.467C192.002 214.467 192.688 214.763 193.193 215.355V211.5H194.458V222H193.296L193.234 221.207C192.729 221.827 192.024 222.137 191.122 222.137C190.265 222.137 189.566 221.786 189.023 221.084C188.486 220.382 188.217 219.466 188.217 218.336V218.24ZM189.481 218.384C189.481 219.222 189.655 219.879 190.001 220.353C190.347 220.826 190.826 221.063 191.437 221.063C192.239 221.063 192.824 220.703 193.193 219.983V216.586C192.815 215.889 192.234 215.54 191.45 215.54C190.83 215.54 190.347 215.779 190.001 216.258C189.655 216.736 189.481 217.445 189.481 218.384ZM204.466 222C204.393 221.854 204.334 221.594 204.288 221.221C203.7 221.831 202.998 222.137 202.183 222.137C201.453 222.137 200.854 221.932 200.385 221.521C199.92 221.107 199.688 220.583 199.688 219.949C199.688 219.179 199.979 218.582 200.562 218.158C201.15 217.73 201.975 217.516 203.037 217.516H204.268V216.935C204.268 216.493 204.135 216.142 203.871 215.882C203.607 215.618 203.217 215.485 202.702 215.485C202.251 215.485 201.873 215.599 201.567 215.827C201.262 216.055 201.109 216.331 201.109 216.654H199.838C199.838 216.285 199.968 215.93 200.228 215.588C200.492 215.242 200.847 214.968 201.294 214.768C201.745 214.567 202.24 214.467 202.777 214.467C203.63 214.467 204.297 214.681 204.78 215.109C205.263 215.533 205.514 216.119 205.532 216.866V220.271C205.532 220.95 205.619 221.49 205.792 221.891V222H204.466ZM202.367 221.036C202.764 221.036 203.14 220.934 203.495 220.729C203.851 220.523 204.108 220.257 204.268 219.929V218.411H203.276C201.727 218.411 200.952 218.865 200.952 219.771C200.952 220.168 201.084 220.478 201.349 220.701C201.613 220.924 201.952 221.036 202.367 221.036ZM208.711 214.604L208.752 215.533C209.317 214.822 210.055 214.467 210.967 214.467C212.53 214.467 213.318 215.349 213.332 217.112V222H212.067V217.105C212.063 216.572 211.94 216.178 211.698 215.923C211.461 215.668 211.09 215.54 210.584 215.54C210.174 215.54 209.814 215.649 209.504 215.868C209.194 216.087 208.952 216.374 208.779 216.729V222H207.515V214.604H208.711ZM216.613 222H215.349V214.604H216.613V222ZM215.246 212.642C215.246 212.437 215.308 212.263 215.431 212.122C215.558 211.981 215.745 211.91 215.991 211.91C216.237 211.91 216.424 211.981 216.552 212.122C216.679 212.263 216.743 212.437 216.743 212.642C216.743 212.847 216.679 213.018 216.552 213.154C216.424 213.291 216.237 213.359 215.991 213.359C215.745 213.359 215.558 213.291 215.431 213.154C215.308 213.018 215.246 212.847 215.246 212.642ZM219.833 214.604L219.867 215.424C220.41 214.786 221.141 214.467 222.062 214.467C223.096 214.467 223.8 214.863 224.174 215.656C224.42 215.301 224.739 215.014 225.131 214.795C225.527 214.576 225.994 214.467 226.532 214.467C228.155 214.467 228.979 215.326 229.007 217.044V222H227.742V217.119C227.742 216.59 227.621 216.196 227.38 215.937C227.138 215.672 226.733 215.54 226.163 215.54C225.694 215.54 225.304 215.681 224.994 215.964C224.684 216.242 224.504 216.618 224.454 217.092V222H223.183V217.153C223.183 216.078 222.656 215.54 221.604 215.54C220.774 215.54 220.207 215.893 219.901 216.6V222H218.637V214.604H219.833ZM235.487 222C235.414 221.854 235.355 221.594 235.31 221.221C234.722 221.831 234.02 222.137 233.204 222.137C232.475 222.137 231.876 221.932 231.406 221.521C230.941 221.107 230.709 220.583 230.709 219.949C230.709 219.179 231.001 218.582 231.584 218.158C232.172 217.73 232.997 217.516 234.059 217.516H235.289V216.935C235.289 216.493 235.157 216.142 234.893 215.882C234.628 215.618 234.239 215.485 233.724 215.485C233.272 215.485 232.894 215.599 232.589 215.827C232.284 216.055 232.131 216.331 232.131 216.654H230.859C230.859 216.285 230.989 215.93 231.249 215.588C231.513 215.242 231.869 214.968 232.315 214.768C232.767 214.567 233.261 214.467 233.799 214.467C234.651 214.467 235.319 214.681 235.802 215.109C236.285 215.533 236.535 216.119 236.554 216.866V220.271C236.554 220.95 236.64 221.49 236.813 221.891V222H235.487ZM233.389 221.036C233.785 221.036 234.161 220.934 234.517 220.729C234.872 220.523 235.13 220.257 235.289 219.929V218.411H234.298C232.748 218.411 231.974 218.865 231.974 219.771C231.974 220.168 232.106 220.478 232.37 220.701C232.634 220.924 232.974 221.036 233.389 221.036ZM239.91 222H238.646V211.5H239.91V222ZM246.247 220.038C246.247 219.696 246.117 219.432 245.857 219.245C245.602 219.054 245.153 218.89 244.511 218.753C243.873 218.616 243.365 218.452 242.986 218.261C242.613 218.069 242.335 217.841 242.152 217.577C241.975 217.313 241.886 216.998 241.886 216.634C241.886 216.028 242.141 215.515 242.651 215.096C243.166 214.676 243.823 214.467 244.62 214.467C245.459 214.467 246.138 214.683 246.657 215.116C247.181 215.549 247.443 216.103 247.443 216.777H246.172C246.172 216.431 246.024 216.132 245.728 215.882C245.436 215.631 245.067 215.506 244.62 215.506C244.16 215.506 243.8 215.606 243.54 215.807C243.28 216.007 243.15 216.269 243.15 216.593C243.15 216.898 243.271 217.128 243.513 217.283C243.754 217.438 244.189 217.586 244.818 217.728C245.452 217.869 245.965 218.037 246.356 218.233C246.748 218.429 247.038 218.666 247.225 218.944C247.416 219.218 247.512 219.553 247.512 219.949C247.512 220.61 247.247 221.141 246.719 221.542C246.19 221.938 245.504 222.137 244.661 222.137C244.069 222.137 243.545 222.032 243.089 221.822C242.633 221.613 242.275 221.321 242.016 220.947C241.76 220.569 241.633 220.161 241.633 219.724H242.897C242.92 220.147 243.089 220.485 243.403 220.735C243.722 220.981 244.142 221.104 244.661 221.104C245.14 221.104 245.522 221.009 245.81 220.817C246.101 220.621 246.247 220.362 246.247 220.038ZM259.181 220.257L260.603 214.604H261.867L259.714 222H258.688L256.891 216.395L255.141 222H254.115L251.969 214.604H253.227L254.683 220.141L256.405 214.604H257.424L259.181 220.257ZM264.533 222H263.269V214.604H264.533V222ZM263.166 212.642C263.166 212.437 263.228 212.263 263.351 212.122C263.478 211.981 263.665 211.91 263.911 211.91C264.157 211.91 264.344 211.981 264.472 212.122C264.599 212.263 264.663 212.437 264.663 212.642C264.663 212.847 264.599 213.018 264.472 213.154C264.344 213.291 264.157 213.359 263.911 213.359C263.665 213.359 263.478 213.291 263.351 213.154C263.228 213.018 263.166 212.847 263.166 212.642ZM268.279 212.812V214.604H269.66V215.581H268.279V220.168C268.279 220.464 268.341 220.688 268.464 220.838C268.587 220.984 268.797 221.057 269.093 221.057C269.239 221.057 269.439 221.029 269.694 220.975V222C269.362 222.091 269.038 222.137 268.724 222.137C268.159 222.137 267.732 221.966 267.445 221.624C267.158 221.282 267.015 220.797 267.015 220.168V215.581H265.668V214.604H267.015V212.812H268.279ZM272.408 215.499C272.969 214.811 273.698 214.467 274.596 214.467C276.159 214.467 276.947 215.349 276.961 217.112V222H275.696V217.105C275.692 216.572 275.569 216.178 275.327 215.923C275.09 215.668 274.719 215.54 274.213 215.54C273.803 215.54 273.443 215.649 273.133 215.868C272.823 216.087 272.581 216.374 272.408 216.729V222H271.144V211.5H272.408V215.499ZM284.043 212.812V214.604H285.424V215.581H284.043V220.168C284.043 220.464 284.104 220.688 284.228 220.838C284.351 220.984 284.56 221.057 284.856 221.057C285.002 221.057 285.203 221.029 285.458 220.975V222C285.125 222.091 284.802 222.137 284.487 222.137C283.922 222.137 283.496 221.966 283.209 221.624C282.922 221.282 282.778 220.797 282.778 220.168V215.581H281.432V214.604H282.778V212.812H284.043ZM288.172 215.499C288.732 214.811 289.462 214.467 290.359 214.467C291.923 214.467 292.711 215.349 292.725 217.112V222H291.46V217.105C291.455 216.572 291.332 216.178 291.091 215.923C290.854 215.668 290.482 215.54 289.977 215.54C289.566 215.54 289.206 215.649 288.896 215.868C288.587 216.087 288.345 216.374 288.172 216.729V222H286.907V211.5H288.172V215.499ZM297.688 222.137C296.685 222.137 295.869 221.809 295.24 221.152C294.611 220.492 294.297 219.61 294.297 218.507V218.274C294.297 217.541 294.436 216.887 294.714 216.312C294.996 215.734 295.388 215.283 295.89 214.959C296.396 214.631 296.942 214.467 297.53 214.467C298.492 214.467 299.239 214.784 299.772 215.417C300.306 216.05 300.572 216.957 300.572 218.138V218.664H295.562C295.58 219.393 295.792 219.983 296.197 220.435C296.607 220.881 297.127 221.104 297.756 221.104C298.202 221.104 298.581 221.013 298.891 220.831C299.201 220.649 299.472 220.407 299.704 220.106L300.477 220.708C299.857 221.66 298.927 222.137 297.688 222.137ZM297.53 215.506C297.02 215.506 296.591 215.693 296.245 216.066C295.899 216.436 295.685 216.955 295.603 217.625H299.308V217.529C299.271 216.887 299.098 216.39 298.788 216.039C298.478 215.684 298.059 215.506 297.53 215.506ZM303.416 222H302.151V214.604H303.416V222ZM302.049 212.642C302.049 212.437 302.11 212.263 302.233 212.122C302.361 211.981 302.548 211.91 302.794 211.91C303.04 211.91 303.227 211.981 303.354 212.122C303.482 212.263 303.546 212.437 303.546 212.642C303.546 212.847 303.482 213.018 303.354 213.154C303.227 213.291 303.04 213.359 302.794 213.359C302.548 213.359 302.361 213.291 302.233 213.154C302.11 213.018 302.049 212.847 302.049 212.642ZM309.021 215.738C308.83 215.706 308.623 215.69 308.399 215.69C307.57 215.69 307.007 216.044 306.711 216.75V222H305.446V214.604H306.677L306.697 215.458C307.112 214.797 307.7 214.467 308.461 214.467C308.707 214.467 308.894 214.499 309.021 214.562V215.738ZM314.285 222V215.581H313.116V214.604H314.285V213.845C314.285 213.052 314.497 212.439 314.921 212.006C315.345 211.573 315.944 211.356 316.719 211.356C317.01 211.356 317.3 211.395 317.587 211.473L317.519 212.498C317.304 212.457 317.076 212.437 316.835 212.437C316.425 212.437 316.108 212.557 315.885 212.799C315.661 213.036 315.55 213.378 315.55 213.824V214.604H317.129V215.581H315.55V222H314.285ZM323.097 222C323.024 221.854 322.965 221.594 322.919 221.221C322.331 221.831 321.629 222.137 320.813 222.137C320.084 222.137 319.485 221.932 319.016 221.521C318.551 221.107 318.318 220.583 318.318 219.949C318.318 219.179 318.61 218.582 319.193 218.158C319.781 217.73 320.606 217.516 321.668 217.516H322.898V216.935C322.898 216.493 322.766 216.142 322.502 215.882C322.238 215.618 321.848 215.485 321.333 215.485C320.882 215.485 320.504 215.599 320.198 215.827C319.893 216.055 319.74 216.331 319.74 216.654H318.469C318.469 216.285 318.599 215.93 318.858 215.588C319.123 215.242 319.478 214.968 319.925 214.768C320.376 214.567 320.87 214.467 321.408 214.467C322.26 214.467 322.928 214.681 323.411 215.109C323.894 215.533 324.145 216.119 324.163 216.866V220.271C324.163 220.95 324.25 221.49 324.423 221.891V222H323.097ZM320.998 221.036C321.395 221.036 321.771 220.934 322.126 220.729C322.481 220.523 322.739 220.257 322.898 219.929V218.411H321.907C320.358 218.411 319.583 218.865 319.583 219.771C319.583 220.168 319.715 220.478 319.979 220.701C320.244 220.924 320.583 221.036 320.998 221.036ZM328.477 220.284L330.309 214.604H331.601L328.948 222H327.984L325.305 214.604H326.597L328.477 220.284ZM332.373 218.233C332.373 217.509 332.514 216.857 332.797 216.278C333.084 215.7 333.48 215.253 333.986 214.938C334.497 214.624 335.078 214.467 335.729 214.467C336.737 214.467 337.55 214.815 338.17 215.513C338.794 216.21 339.106 217.137 339.106 218.295V218.384C339.106 219.104 338.967 219.751 338.689 220.325C338.416 220.895 338.022 221.339 337.507 221.658C336.996 221.977 336.409 222.137 335.743 222.137C334.741 222.137 333.927 221.788 333.303 221.091C332.683 220.394 332.373 219.471 332.373 218.322V218.233ZM333.645 218.384C333.645 219.204 333.834 219.863 334.212 220.359C334.595 220.856 335.105 221.104 335.743 221.104C336.386 221.104 336.896 220.854 337.274 220.353C337.653 219.847 337.842 219.14 337.842 218.233C337.842 217.422 337.648 216.766 337.261 216.265C336.878 215.759 336.368 215.506 335.729 215.506C335.105 215.506 334.602 215.754 334.219 216.251C333.836 216.748 333.645 217.459 333.645 218.384ZM345.259 221.269C344.767 221.847 344.044 222.137 343.092 222.137C342.303 222.137 341.702 221.909 341.287 221.453C340.877 220.993 340.67 220.314 340.665 219.416V214.604H341.93V219.382C341.93 220.503 342.385 221.063 343.297 221.063C344.263 221.063 344.906 220.703 345.225 219.983V214.604H346.489V222H345.286L345.259 221.269ZM351.992 215.738C351.801 215.706 351.593 215.69 351.37 215.69C350.541 215.69 349.978 216.044 349.682 216.75V222H348.417V214.604H349.647L349.668 215.458C350.083 214.797 350.671 214.467 351.432 214.467C351.678 214.467 351.865 214.499 351.992 214.562V215.738ZM354.535 222H353.271V214.604H354.535V222ZM353.168 212.642C353.168 212.437 353.229 212.263 353.353 212.122C353.48 211.981 353.667 211.91 353.913 211.91C354.159 211.91 354.346 211.981 354.474 212.122C354.601 212.263 354.665 212.437 354.665 212.642C354.665 212.847 354.601 213.018 354.474 213.154C354.346 213.291 354.159 213.359 353.913 213.359C353.667 213.359 353.48 213.291 353.353 213.154C353.229 213.018 353.168 212.847 353.168 212.642ZM358.281 212.812V214.604H359.662V215.581H358.281V220.168C358.281 220.464 358.343 220.688 358.466 220.838C358.589 220.984 358.799 221.057 359.095 221.057C359.241 221.057 359.441 221.029 359.696 220.975V222C359.364 222.091 359.04 222.137 358.726 222.137C358.16 222.137 357.734 221.966 357.447 221.624C357.16 221.282 357.017 220.797 357.017 220.168V215.581H355.67V214.604H357.017V212.812H358.281ZM364.215 222.137C363.212 222.137 362.396 221.809 361.768 221.152C361.139 220.492 360.824 219.61 360.824 218.507V218.274C360.824 217.541 360.963 216.887 361.241 216.312C361.524 215.734 361.916 215.283 362.417 214.959C362.923 214.631 363.47 214.467 364.058 214.467C365.019 214.467 365.767 214.784 366.3 215.417C366.833 216.05 367.1 216.957 367.1 218.138V218.664H362.089C362.107 219.393 362.319 219.983 362.725 220.435C363.135 220.881 363.654 221.104 364.283 221.104C364.73 221.104 365.108 221.013 365.418 220.831C365.728 220.649 365.999 220.407 366.231 220.106L367.004 220.708C366.384 221.66 365.454 222.137 364.215 222.137ZM364.058 215.506C363.547 215.506 363.119 215.693 362.772 216.066C362.426 216.436 362.212 216.955 362.13 217.625H365.835V217.529C365.799 216.887 365.625 216.39 365.315 216.039C365.006 215.684 364.586 215.506 364.058 215.506ZM372.664 222V215.581H371.495V214.604H372.664V213.845C372.664 213.052 372.876 212.439 373.3 212.006C373.724 211.573 374.323 211.356 375.098 211.356C375.389 211.356 375.679 211.395 375.966 211.473L375.897 212.498C375.683 212.457 375.455 212.437 375.214 212.437C374.804 212.437 374.487 212.557 374.264 212.799C374.04 213.036 373.929 213.378 373.929 213.824V214.604H375.508V215.581H373.929V222H372.664ZM376.574 218.233C376.574 217.509 376.715 216.857 376.998 216.278C377.285 215.7 377.682 215.253 378.188 214.938C378.698 214.624 379.279 214.467 379.931 214.467C380.938 214.467 381.751 214.815 382.371 215.513C382.995 216.21 383.308 217.137 383.308 218.295V218.384C383.308 219.104 383.169 219.751 382.891 220.325C382.617 220.895 382.223 221.339 381.708 221.658C381.198 221.977 380.61 222.137 379.944 222.137C378.942 222.137 378.128 221.788 377.504 221.091C376.884 220.394 376.574 219.471 376.574 218.322V218.233ZM377.846 218.384C377.846 219.204 378.035 219.863 378.413 220.359C378.796 220.856 379.306 221.104 379.944 221.104C380.587 221.104 381.097 220.854 381.476 220.353C381.854 219.847 382.043 219.14 382.043 218.233C382.043 217.422 381.849 216.766 381.462 216.265C381.079 215.759 380.569 215.506 379.931 215.506C379.306 215.506 378.803 215.754 378.42 216.251C378.037 216.748 377.846 217.459 377.846 218.384ZM384.559 218.233C384.559 217.509 384.7 216.857 384.982 216.278C385.27 215.7 385.666 215.253 386.172 214.938C386.682 214.624 387.263 214.467 387.915 214.467C388.922 214.467 389.736 214.815 390.355 215.513C390.98 216.21 391.292 217.137 391.292 218.295V218.384C391.292 219.104 391.153 219.751 390.875 220.325C390.602 220.895 390.207 221.339 389.692 221.658C389.182 221.977 388.594 222.137 387.929 222.137C386.926 222.137 386.113 221.788 385.488 221.091C384.868 220.394 384.559 219.471 384.559 218.322V218.233ZM385.83 218.384C385.83 219.204 386.019 219.863 386.397 220.359C386.78 220.856 387.291 221.104 387.929 221.104C388.571 221.104 389.082 220.854 389.46 220.353C389.838 219.847 390.027 219.14 390.027 218.233C390.027 217.422 389.834 216.766 389.446 216.265C389.063 215.759 388.553 215.506 387.915 215.506C387.291 215.506 386.787 215.754 386.404 216.251C386.021 216.748 385.83 217.459 385.83 218.384ZM392.57 218.24C392.57 217.105 392.839 216.194 393.377 215.506C393.915 214.813 394.619 214.467 395.489 214.467C396.355 214.467 397.041 214.763 397.547 215.355V211.5H398.812V222H397.649L397.588 221.207C397.082 221.827 396.378 222.137 395.476 222.137C394.619 222.137 393.919 221.786 393.377 221.084C392.839 220.382 392.57 219.466 392.57 218.336V218.24ZM393.835 218.384C393.835 219.222 394.008 219.879 394.354 220.353C394.701 220.826 395.179 221.063 395.79 221.063C396.592 221.063 397.178 220.703 397.547 219.983V216.586C397.169 215.889 396.588 215.54 395.804 215.54C395.184 215.54 394.701 215.779 394.354 216.258C394.008 216.736 393.835 217.445 393.835 218.384Z" fill="#C5E1E6"/>
<g filter="url(#filter0_d_13_685)">
<circle cx="236.5" cy="120.5" r="72.5" fill="white"/>
</g>
<g clip-path="url(#clip0_13_685)">
<path opacity="0.8" d="M214 119H220V138H214V119Z" fill="#216E7A"/>
<path d="M262.427 126.815C261.49 126.122 260.239 125.92 258.992 126.265L243.703 130.492C243.891 130.028 244 129.523 244 128.991C244 126.79 242.206 125 240 125H230.623C229.957 124 228.261 121 226 121H222V120C222 118.346 220.654 117 219 117H215C213.346 117 212 118.346 212 120V137C212 138.654 213.346 140 215 140H219C220.654 140 222 138.655 222 137V136.248L234.139 144.45C235.663 145.482 237.437 146 239.214 146C240.856 146 242.501 145.558 243.956 144.669L262.129 133.568C263.283 132.865 264 131.587 264 130.235V129.922C264 128.691 263.427 127.559 262.427 126.815ZM220 137C220 137.552 219.551 138 219 138H218V134H216V138H215C214.449 138 214 137.552 214 137V120C214 119.448 214.449 119 215 119H219C219.551 119 220 119.449 220 120V137ZM262 130.235C262 130.895 261.65 131.518 261.087 131.862L242.914 142.962C240.549 144.405 237.545 144.34 235.26 142.793L222 133.835V123H226C227.059 123 228.469 125.034 229.088 126.409L229.354 127H240C241.103 127 242 127.893 242 128.99C242 130.098 241.103 131 240 131H230V133H240H242L259.524 128.193C260.165 128.015 260.804 128.1 261.234 128.422C261.721 128.783 262 129.33 262 129.922V130.235Z" fill="#216E7A"/>
<path opacity="0.8" d="M244.5 107.233C243.733 107.233 242.998 107.538 242.456 108.08C241.914 108.622 241.61 109.357 241.61 110.123C241.61 110.89 241.914 111.625 242.456 112.167C242.998 112.709 243.733 113.013 244.5 113.013C245.266 113.013 246.001 112.709 246.543 112.167C247.085 111.625 247.39 110.89 247.39 110.123C247.39 109.357 247.085 108.622 246.543 108.08C246.001 107.538 245.266 107.233 244.5 107.233Z" fill="#216E7A"/>
<path d="M255.194 100.562C253.603 99.2551 251.524 98.8435 249 99.3412C247.431 99.6846 246.346 100.182 245.589 100.723L245.078 100.443V98.5631C245.078 98.4185 245.095 98.2295 245.18 98.1457C245.353 97.974 245.965 97.9797 246.502 97.9832L249.125 97.9855C251.355 97.9855 253.172 96.1702 253.172 93.9398V91.0469H247.968C246.496 91.0469 245.207 91.8406 244.5 93.02C243.792 91.8406 242.504 91.0469 241.032 91.0469H235.828V93.9398C235.828 96.1702 237.644 97.9855 239.875 97.9855L242.497 97.9838C243.037 97.9797 243.647 97.9745 243.82 98.1462C243.904 98.2301 243.922 98.4191 243.922 98.5637V100.444L243.375 100.746C242.618 100.208 241.538 99.7153 239.988 99.3753C237.476 98.881 235.393 99.2915 233.8 100.599C230.665 103.177 230.629 108.277 230.629 108.492C230.629 113.018 233.642 117.691 237.638 119.362C238.585 119.758 239.521 119.955 240.424 119.955C241.902 119.955 243.292 119.429 244.5 118.394C246.445 120.057 248.858 120.404 251.355 119.36C255.355 117.687 258.372 113.008 258.372 108.477C258.371 108.261 258.336 103.145 255.194 100.562ZM247.968 92.2031H252.015V93.9398C252.015 95.5331 250.718 96.8299 249.125 96.8299L246.512 96.8281C245.998 96.8264 245.367 96.8235 245.078 96.9368V96.8299C245.078 95.8736 245.856 95.0937 246.812 95.0937H248.547V93.9375H246.812C246.192 93.9375 245.62 94.1375 245.149 94.4711C245.435 93.1767 246.589 92.2031 247.968 92.2031ZM242.768 96.827C242.676 96.827 242.583 96.8275 242.489 96.8281L239.875 96.8293C238.282 96.8293 236.984 95.5325 236.984 93.9392V92.2031H241.032C242.411 92.2031 243.564 93.1767 243.85 94.4711C243.379 94.1375 242.808 93.9375 242.188 93.9375H240.453V95.0937H242.188C243.144 95.0937 243.922 95.8736 243.922 96.8293V96.9345C243.344 96.8408 243.18 96.827 242.768 96.827ZM250.909 118.293C248.692 119.221 246.56 118.83 244.906 117.197L244.5 116.797L244.094 117.197C242.436 118.833 240.302 119.224 238.083 118.296C234.551 116.819 231.784 112.512 231.784 108.492C231.784 108.444 231.816 103.726 234.534 101.492C235.476 100.717 236.651 100.329 238.034 100.329C238.575 100.329 239.148 100.388 239.752 100.507C243.217 101.266 243.922 102.783 243.922 103.436V103.766H245.078V103.359C245.078 102.582 245.892 101.206 249.236 100.473C251.392 100.047 253.147 100.378 254.457 101.453C257.176 103.684 257.216 108.43 257.216 108.477C257.216 112.503 254.445 116.814 250.909 118.293Z" fill="#216E7A"/>
</g>
<defs>
<filter id="filter0_d_13_685" x="114" y="0" width="245" height="245" filterUnits="userSpaceOnUse" color-interpolation-filters="sRGB">
<feFlood flood-opacity="0" result="BackgroundImageFix"/>
<feColorMatrix in="SourceAlpha" type="matrix" values="0 0 0 0 0 0 0 0 0 0 0 0 0 0 0 0 0 0 127 0" result="hardAlpha"/>
<feOffset dy="2"/>
<feGaussianBlur stdDeviation="25"/>
<feColorMatrix type="matrix" values="0 0 0 0 0.72549 0 0 0 0 0.835294 0 0 0 0 0.85098 0 0 0 0.6 0"/>
<feBlend mode="normal" in2="BackgroundImageFix" result="effect1_dropShadow_13_685"/>
<feBlend mode="normal" in="SourceGraphic" in2="effect1_dropShadow_13_685" result="shape"/>
</filter>
<clipPath id="clip0_13_685">
<rect width="64" height="64" fill="white" transform="translate(206 90)"/>
</clipPath>
</defs>
</svg>
