<svg width="1920" height="515" viewBox="0 0 1920 515" fill="none" xmlns="http://www.w3.org/2000/svg">
<path d="M121.95 165.296L6.16623 277.477C-1.61027 285.011 -6 295.376 -6 306.204V424.84C-6 446.931 11.9086 464.84 34 464.84H103.673H440.5H739.28H969.221C973.757 464.84 978.26 465.611 982.537 467.121L1111.69 512.718C1115.97 514.228 1120.47 515 1125 515H1311.33C1315.46 515 1319.56 514.361 1323.49 513.106L1565.86 435.734C1569.8 434.479 1573.9 433.84 1578.03 433.84H1832H1932.77C1946.59 433.84 1959.44 426.7 1966.74 414.957L2001.97 358.278C2005.91 351.94 2008 344.625 2008 337.161V208.259C2008 186.168 1990.09 168.259 1968 168.259H1953.9C1945.33 168.259 1936.98 165.507 1930.09 160.408L1795.28 60.5969C1787.78 55.0413 1778.57 52.2857 1769.24 52.8077L1587.48 62.9852C1577.4 63.5495 1567.91 67.9045 1560.9 75.1763L1446.51 193.968C1438.97 201.798 1428.57 206.222 1417.7 206.222H1330.22C1321.98 206.222 1313.94 203.677 1307.2 198.936L1213.25 132.838C1206.52 128.096 1198.48 125.552 1190.24 125.552H990.378C981.129 125.552 972.166 128.757 965.014 134.622L825.117 249.349C817.966 255.214 809.002 258.42 799.753 258.42H620.477C611.84 258.42 603.436 255.625 596.52 250.452L478.243 161.991C471.327 156.819 462.922 154.024 454.286 154.024H149.784C139.394 154.024 129.412 158.066 121.95 165.296Z" fill="#2A8086"/>
<path d="M122.177 126.983L7.24899 230.365C-1.18414 237.951 -6 248.761 -6 260.104V365.292C-6 387.384 11.9086 405.292 34 405.292H95.7997C100.999 405.292 106.148 404.279 110.959 402.308L300.778 324.569C305.589 322.599 310.739 321.585 315.938 321.585H616.086C624.856 321.585 633.383 324.467 640.354 329.788L728.532 397.089C735.503 402.41 744.03 405.292 752.8 405.292H965.167C972.308 405.292 979.319 407.204 985.472 410.829L1108.75 483.463C1114.91 487.088 1121.92 489 1129.06 489H1309.61C1314.86 489 1320.05 487.968 1324.9 485.962L1434.71 440.538L1566.9 406.552C1570.15 405.716 1573.5 405.292 1576.86 405.292H1771.25C1779.34 405.292 1787.24 402.839 1793.9 398.256L1930.46 304.39C1937.13 299.807 1945.03 297.354 1953.12 297.354H1968C1990.09 297.354 2008 279.445 2008 257.354V169.939C2008 147.847 1990.09 129.939 1968 129.939H1953.12C1945.03 129.939 1937.13 127.485 1930.46 122.902L1794.85 29.6868C1787.6 24.7018 1778.91 22.2476 1770.12 22.7045L1586.73 32.2382C1577.1 32.7386 1567.98 36.6979 1561.04 43.3878L1446.33 153.98C1438.87 161.168 1428.92 165.184 1418.57 165.184H1329.46C1321.69 165.184 1314.09 162.921 1307.59 158.672L1212.87 96.7992C1206.36 92.5504 1198.76 90.2877 1190.99 90.2877H989.569C980.815 90.2877 972.302 93.1595 965.337 98.4626L824.794 205.471C817.829 210.774 809.316 213.646 800.562 213.646H619.699C611.544 213.646 603.583 211.153 596.885 206.502L477.878 123.866C471.179 119.214 463.219 116.722 455.063 116.722H148.928C139.05 116.722 129.521 120.377 122.177 126.983Z" fill="#2A808D" fill-opacity="0.3"/>
<g filter="url(#filter0_d_217_1333)">
<rect x="782" y="304" width="356" height="52" rx="26" fill="#C5E1E6"/>
<path d="M861.362 337H864.324C864.939 336.994 865.511 336.921 866.038 336.78C866.571 336.64 867.049 336.438 867.471 336.174C867.869 335.922 868.229 335.617 868.552 335.26C868.874 334.902 869.141 334.504 869.352 334.064C869.557 333.643 869.712 333.18 869.817 332.676C869.929 332.172 869.984 331.639 869.984 331.076V330.136C869.979 329.55 869.917 328.999 869.8 328.483C869.688 327.968 869.524 327.493 869.308 327.06C869.067 326.55 868.745 326.102 868.341 325.715C867.942 325.322 867.482 325.006 866.961 324.766C866.586 324.59 866.176 324.455 865.73 324.361C865.291 324.262 864.822 324.209 864.324 324.203H861.362V337ZM863.015 325.539H864.324C864.729 325.545 865.101 325.592 865.44 325.68C865.78 325.762 866.088 325.879 866.363 326.031C866.75 326.236 867.075 326.506 867.339 326.84C867.608 327.168 867.822 327.537 867.98 327.947C868.104 328.264 868.194 328.606 868.253 328.976C868.317 329.339 868.353 329.72 868.358 330.118V331.076C868.353 331.469 868.32 331.847 868.262 332.21C868.203 332.567 868.115 332.901 867.998 333.212C867.863 333.593 867.679 333.938 867.444 334.249C867.216 334.554 866.943 334.812 866.627 335.022C866.328 335.228 865.985 335.386 865.599 335.497C865.218 335.608 864.793 335.667 864.324 335.673H863.015V325.539ZM879.763 331.34V329.881C879.757 329.424 879.716 328.961 879.64 328.492C879.57 328.023 879.458 327.572 879.306 327.139C879.148 326.705 878.949 326.301 878.708 325.926C878.474 325.545 878.193 325.214 877.865 324.933C877.537 324.651 877.159 324.432 876.731 324.273C876.303 324.109 875.826 324.027 875.298 324.027C874.771 324.027 874.293 324.109 873.866 324.273C873.444 324.432 873.069 324.651 872.741 324.933C872.413 325.22 872.128 325.554 871.888 325.935C871.654 326.31 871.46 326.714 871.308 327.147C871.15 327.581 871.033 328.032 870.956 328.501C870.886 328.964 870.848 329.424 870.842 329.881V331.34C870.848 331.797 870.889 332.257 870.965 332.72C871.041 333.183 871.159 333.631 871.317 334.064C871.469 334.498 871.665 334.905 871.906 335.286C872.146 335.661 872.43 335.989 872.758 336.271C873.086 336.552 873.461 336.774 873.883 336.938C874.311 337.097 874.788 337.176 875.316 337.176C875.843 337.176 876.318 337.097 876.74 336.938C877.167 336.774 877.545 336.552 877.873 336.271C878.202 335.989 878.483 335.661 878.717 335.286C878.957 334.911 879.154 334.507 879.306 334.073C879.458 333.64 879.57 333.191 879.64 332.729C879.716 332.26 879.757 331.797 879.763 331.34ZM878.155 329.863V331.34C878.149 331.645 878.128 331.964 878.093 332.298C878.064 332.632 878.008 332.96 877.926 333.282C877.838 333.61 877.724 333.924 877.583 334.223C877.449 334.516 877.279 334.773 877.074 334.996C876.863 335.225 876.611 335.406 876.318 335.541C876.031 335.676 875.697 335.743 875.316 335.743C874.935 335.743 874.601 335.676 874.314 335.541C874.027 335.406 873.778 335.225 873.567 334.996C873.356 334.773 873.18 334.513 873.039 334.214C872.899 333.915 872.785 333.602 872.697 333.273C872.609 332.951 872.544 332.623 872.503 332.289C872.468 331.955 872.448 331.639 872.442 331.34V329.863C872.448 329.564 872.468 329.251 872.503 328.923C872.544 328.589 872.609 328.258 872.697 327.93C872.779 327.607 872.89 327.3 873.031 327.007C873.171 326.708 873.347 326.444 873.558 326.216C873.769 325.993 874.018 325.814 874.305 325.68C874.592 325.545 874.923 325.478 875.298 325.478C875.679 325.478 876.013 325.545 876.3 325.68C876.587 325.809 876.836 325.984 877.047 326.207C877.258 326.436 877.434 326.699 877.575 326.998C877.715 327.291 877.829 327.599 877.917 327.921C877.999 328.249 878.058 328.58 878.093 328.914C878.128 329.242 878.149 329.559 878.155 329.863ZM889.366 337V324.203H887.722L887.696 333.748L882.73 324.203H881.078V337H882.721L882.748 327.438L887.714 337H889.366ZM897.369 333.687L898.38 337H899.997L895.937 324.203H894.574L890.444 337H892.07L893.098 333.687H897.369ZM893.537 332.271L895.251 326.717L896.939 332.271H893.537ZM909.802 325.592V324.203H900.31V325.592H904.265V337H905.847V325.592H909.802ZM918.122 331.085V329.705H912.778V325.592H918.931V324.203H911.152V337H919.01V335.62H912.778V331.085H918.122ZM939.534 325.592V324.203H930.042V325.592H933.997V337H935.579V325.592H939.534ZM949.137 331.34V329.881C949.131 329.424 949.09 328.961 949.014 328.492C948.944 328.023 948.832 327.572 948.68 327.139C948.522 326.705 948.322 326.301 948.082 325.926C947.848 325.545 947.567 325.214 947.238 324.933C946.91 324.651 946.532 324.432 946.105 324.273C945.677 324.109 945.199 324.027 944.672 324.027C944.145 324.027 943.667 324.109 943.239 324.273C942.818 324.432 942.443 324.651 942.114 324.933C941.786 325.22 941.502 325.554 941.262 325.935C941.028 326.31 940.834 326.714 940.682 327.147C940.524 327.581 940.406 328.032 940.33 328.501C940.26 328.964 940.222 329.424 940.216 329.881V331.34C940.222 331.797 940.263 332.257 940.339 332.72C940.415 333.183 940.532 333.631 940.691 334.064C940.843 334.498 941.039 334.905 941.279 335.286C941.52 335.661 941.804 335.989 942.132 336.271C942.46 336.552 942.835 336.774 943.257 336.938C943.685 337.097 944.162 337.176 944.69 337.176C945.217 337.176 945.692 337.097 946.113 336.938C946.541 336.774 946.919 336.552 947.247 336.271C947.575 335.989 947.857 335.661 948.091 335.286C948.331 334.911 948.528 334.507 948.68 334.073C948.832 333.64 948.944 333.191 949.014 332.729C949.09 332.26 949.131 331.797 949.137 331.34ZM947.529 329.863V331.34C947.523 331.645 947.502 331.964 947.467 332.298C947.438 332.632 947.382 332.96 947.3 333.282C947.212 333.61 947.098 333.924 946.957 334.223C946.822 334.516 946.653 334.773 946.447 334.996C946.237 335.225 945.985 335.406 945.692 335.541C945.404 335.676 945.071 335.743 944.69 335.743C944.309 335.743 943.975 335.676 943.688 335.541C943.401 335.406 943.152 335.225 942.941 334.996C942.73 334.773 942.554 334.513 942.413 334.214C942.273 333.915 942.158 333.602 942.071 333.273C941.983 332.951 941.918 332.623 941.877 332.289C941.842 331.955 941.821 331.639 941.816 331.34V329.863C941.821 329.564 941.842 329.251 941.877 328.923C941.918 328.589 941.983 328.258 942.071 327.93C942.153 327.607 942.264 327.3 942.404 327.007C942.545 326.708 942.721 326.444 942.932 326.216C943.143 325.993 943.392 325.814 943.679 325.68C943.966 325.545 944.297 325.478 944.672 325.478C945.053 325.478 945.387 325.545 945.674 325.68C945.961 325.809 946.21 325.984 946.421 326.207C946.632 326.436 946.808 326.699 946.948 326.998C947.089 327.291 947.203 327.599 947.291 327.921C947.373 328.249 947.432 328.58 947.467 328.914C947.502 329.242 947.523 329.559 947.529 329.863ZM963.772 337H965.188L969.222 324.203H967.49L964.66 333.739L964.467 334.381L964.282 333.757L961.47 324.203H959.729L963.772 337ZM978.869 331.34V329.881C978.863 329.424 978.822 328.961 978.746 328.492C978.675 328.023 978.564 327.572 978.412 327.139C978.253 326.705 978.054 326.301 977.814 325.926C977.579 325.545 977.298 325.214 976.97 324.933C976.642 324.651 976.264 324.432 975.836 324.273C975.409 324.109 974.931 324.027 974.404 324.027C973.876 324.027 973.399 324.109 972.971 324.273C972.549 324.432 972.174 324.651 971.846 324.933C971.518 325.22 971.234 325.554 970.994 325.935C970.759 326.31 970.566 326.714 970.413 327.147C970.255 327.581 970.138 328.032 970.062 328.501C969.992 328.964 969.954 329.424 969.948 329.881V331.34C969.954 331.797 969.995 332.257 970.071 332.72C970.147 333.183 970.264 333.631 970.422 334.064C970.575 334.498 970.771 334.905 971.011 335.286C971.251 335.661 971.536 335.989 971.864 336.271C972.192 336.552 972.567 336.774 972.989 336.938C973.416 337.097 973.894 337.176 974.421 337.176C974.949 337.176 975.423 337.097 975.845 336.938C976.273 336.774 976.651 336.552 976.979 336.271C977.307 335.989 977.588 335.661 977.823 335.286C978.063 334.911 978.259 334.507 978.412 334.073C978.564 333.64 978.675 333.191 978.746 332.729C978.822 332.26 978.863 331.797 978.869 331.34ZM977.26 329.863V331.34C977.254 331.645 977.234 331.964 977.199 332.298C977.169 332.632 977.114 332.96 977.032 333.282C976.944 333.61 976.829 333.924 976.689 334.223C976.554 334.516 976.384 334.773 976.179 334.996C975.968 335.225 975.716 335.406 975.423 335.541C975.136 335.676 974.802 335.743 974.421 335.743C974.04 335.743 973.706 335.676 973.419 335.541C973.132 335.406 972.883 335.225 972.672 334.996C972.461 334.773 972.286 334.513 972.145 334.214C972.004 333.915 971.89 333.602 971.802 333.273C971.714 332.951 971.65 332.623 971.609 332.289C971.574 331.955 971.553 331.639 971.547 331.34V329.863C971.553 329.564 971.574 329.251 971.609 328.923C971.65 328.589 971.714 328.258 971.802 327.93C971.884 327.607 971.996 327.3 972.136 327.007C972.277 326.708 972.453 326.444 972.663 326.216C972.874 325.993 973.123 325.814 973.411 325.68C973.698 325.545 974.029 325.478 974.404 325.478C974.785 325.478 975.119 325.545 975.406 325.68C975.693 325.809 975.942 325.984 976.153 326.207C976.364 326.436 976.539 326.699 976.68 326.998C976.821 327.291 976.935 327.599 977.023 327.921C977.105 328.249 977.163 328.58 977.199 328.914C977.234 329.242 977.254 329.559 977.26 329.863ZM982.293 335.62V324.203H980.667V337H988.551V335.62H982.293ZM998.4 324.203H996.826L996.8 332.869C996.788 333.25 996.727 333.616 996.615 333.968C996.504 334.319 996.343 334.63 996.132 334.899C995.915 335.175 995.649 335.395 995.332 335.559C995.016 335.717 994.65 335.796 994.234 335.796C993.818 335.796 993.448 335.714 993.126 335.55C992.81 335.386 992.546 335.169 992.335 334.899C992.118 334.63 991.951 334.319 991.834 333.968C991.723 333.616 991.664 333.25 991.658 332.869L991.623 324.203H990.076L990.059 332.869C990.065 333.467 990.17 334.029 990.375 334.557C990.58 335.078 990.864 335.532 991.228 335.919C991.591 336.312 992.028 336.619 992.537 336.842C993.047 337.064 993.613 337.176 994.234 337.176C994.843 337.176 995.403 337.064 995.912 336.842C996.422 336.613 996.862 336.303 997.231 335.91C997.6 335.523 997.89 335.069 998.101 334.548C998.312 334.026 998.417 333.467 998.417 332.869L998.4 324.203ZM1008.29 337V324.203H1006.65L1006.62 333.748L1001.66 324.203H1000V337H1001.65L1001.67 327.438L1006.64 337H1008.29ZM1018.82 325.592V324.203H1009.33V325.592H1013.28V337H1014.86V325.592H1018.82ZM1027.14 331.085V329.705H1021.79V325.592H1027.95V324.203H1020.17V337H1028.03V335.62H1021.79V331.085H1027.14ZM1037.05 331.085V329.705H1031.7V325.592H1037.86V324.203H1030.08V337H1037.94V335.62H1031.7V331.085H1037.05ZM1044.16 331.779L1046.67 337H1048.38L1048.39 336.895L1045.68 331.428C1046.03 331.275 1046.35 331.091 1046.64 330.874C1046.94 330.657 1047.19 330.408 1047.4 330.127C1047.61 329.846 1047.77 329.532 1047.89 329.187C1048.01 328.841 1048.08 328.46 1048.08 328.044C1048.08 327.399 1047.96 326.84 1047.73 326.365C1047.51 325.885 1047.2 325.486 1046.81 325.17C1046.41 324.854 1045.95 324.616 1045.42 324.458C1044.89 324.3 1044.33 324.215 1043.73 324.203H1039.98V337H1041.6V331.779H1044.16ZM1041.6 330.443V325.539H1043.73C1044.13 325.545 1044.49 325.601 1044.81 325.706C1045.15 325.812 1045.44 325.967 1045.68 326.172C1045.92 326.383 1046.1 326.644 1046.24 326.954C1046.37 327.259 1046.44 327.616 1046.44 328.026C1046.44 328.413 1046.37 328.756 1046.23 329.055C1046.09 329.348 1045.9 329.597 1045.66 329.802C1045.41 330.007 1045.13 330.165 1044.81 330.276C1044.48 330.382 1044.14 330.438 1043.78 330.443H1041.6ZM1056.53 333.766C1056.53 334.117 1056.45 334.422 1056.3 334.68C1056.15 334.932 1055.95 335.14 1055.71 335.304C1055.47 335.474 1055.19 335.6 1054.88 335.682C1054.58 335.758 1054.27 335.796 1053.95 335.796C1053.55 335.796 1053.18 335.743 1052.84 335.638C1052.51 335.526 1052.21 335.362 1051.96 335.146C1051.7 334.935 1051.49 334.677 1051.32 334.372C1051.16 334.062 1051.05 333.707 1051 333.309H1049.34C1049.36 333.859 1049.48 334.36 1049.7 334.812C1049.93 335.257 1050.23 335.646 1050.62 335.98C1051.05 336.367 1051.56 336.663 1052.15 336.868C1052.74 337.073 1053.34 337.176 1053.95 337.176C1054.46 337.176 1054.97 337.105 1055.48 336.965C1055.99 336.818 1056.45 336.602 1056.85 336.314C1057.26 336.033 1057.58 335.679 1057.84 335.251C1058.09 334.823 1058.22 334.322 1058.22 333.748C1058.22 333.18 1058.1 332.679 1057.86 332.245C1057.63 331.812 1057.32 331.445 1056.93 331.146C1056.54 330.824 1056.11 330.561 1055.63 330.355C1055.16 330.145 1054.68 329.966 1054.21 329.819C1053.92 329.731 1053.61 329.629 1053.28 329.512C1052.96 329.395 1052.66 329.248 1052.39 329.072C1052.11 328.896 1051.87 328.683 1051.69 328.431C1051.51 328.173 1051.42 327.859 1051.41 327.49C1051.41 327.15 1051.48 326.852 1051.61 326.594C1051.75 326.336 1051.94 326.119 1052.18 325.943C1052.4 325.768 1052.67 325.636 1052.96 325.548C1053.26 325.46 1053.56 325.416 1053.87 325.416C1054.26 325.416 1054.61 325.478 1054.91 325.601C1055.22 325.718 1055.49 325.885 1055.71 326.102C1055.93 326.318 1056.11 326.579 1056.25 326.884C1056.38 327.183 1056.47 327.517 1056.52 327.886H1058.19C1058.18 327.3 1058.05 326.77 1057.81 326.295C1057.57 325.82 1057.25 325.416 1056.85 325.082C1056.45 324.748 1056 324.49 1055.48 324.309C1054.97 324.121 1054.43 324.027 1053.87 324.027C1053.37 324.027 1052.87 324.106 1052.37 324.265C1051.87 324.417 1051.43 324.643 1051.03 324.941C1050.64 325.24 1050.32 325.606 1050.08 326.04C1049.84 326.474 1049.72 326.966 1049.72 327.517C1049.72 328.067 1049.84 328.548 1050.08 328.958C1050.32 329.362 1050.64 329.714 1051.02 330.013C1051.41 330.306 1051.83 330.558 1052.29 330.769C1052.76 330.974 1053.22 331.149 1053.67 331.296C1053.98 331.396 1054.3 331.507 1054.64 331.63C1054.98 331.753 1055.29 331.905 1055.57 332.087C1055.85 332.274 1056.08 332.503 1056.25 332.772C1056.44 333.042 1056.53 333.373 1056.53 333.766Z" fill="#0D444D"/>
</g>
<path d="M1110.51 192.5C1111.75 174.157 1095.42 146.994 1090.01 146C1090.01 146 1060.01 192.5 1046.01 220.5C1046.45 224.844 1048.27 227.142 1048.01 231.5C1047.74 236 1042.35 238.541 1044.51 242.5C1046.87 246.842 1057.01 244.5 1057.01 244.5C1071.01 242 1072.01 221.5 1073.51 221C1076.01 224.5 1078.65 235.5 1077.51 239.5C1076.51 243 1073.37 244.732 1074.51 248C1075.77 251.637 1079.51 253 1083.01 253C1091.51 253.5 1098.51 247 1103.01 241C1111.51 228 1111.51 205.5 1110.51 192.5Z" fill="#0A5D69"/>
<rect x="982" y="130" width="123" height="92" rx="46" fill="#F3F6F7"/>
<path d="M1029.42 220.5C1038.92 192.5 1032.92 144.5 1010.42 134C1002.09 134.336 989.424 142 989.424 142C989.424 142 960.449 176.921 957.424 204C957.924 214.5 963.925 231.5 961.924 246C959.424 248.39 958.924 249 957.424 251.5C955.424 255.5 960.924 258 964.924 258C969.924 258 976.3 256.159 981.424 251.5C988.053 245.473 987.424 237.5 989.424 230C992.924 234.5 992.424 251.5 989.924 255.5C986.424 261.5 986.924 263.5 989.424 266C996.424 269.833 1009.92 266 1015.92 258C1024.42 244.5 1025.14 236 1029.42 220.5Z" fill="#0A5D69"/>
<circle cx="955.5" cy="132.5" r="13.5" fill="#0A5D69"/>
<circle cx="996.5" cy="126.5" r="13.5" fill="#0A5D69"/>
<rect x="942" y="122" width="79" height="71" rx="35.5" fill="#F3F6F7"/>
<ellipse cx="996.63" cy="151.602" rx="8.85868" ry="11.6027" transform="rotate(-31.8762 996.63 151.602)" fill="#0A5D69"/>
<ellipse rx="8.85868" ry="11.6027" transform="matrix(-0.978754 -0.205037 -0.205037 0.978754 963.05 161.173)" fill="#0A5D69"/>
<path d="M975.5 170C976.233 173.72 983 175.5 984 175.5C984.999 175.5 991.484 169.889 989.5 166C987.5 162.5 975 165.5 975.5 170Z" fill="#0A5D69"/>
<ellipse cx="965.5" cy="159" rx="2.5" ry="3" fill="#F3F6F7"/>
<ellipse cx="992.5" cy="151" rx="2.5" ry="3" fill="#F3F6F7"/>
<path d="M1052.18 31H1041.68L1046.18 75L1047.18 110H1059.18L1054.18 75L1052.18 31Z" fill="#216E7A"/>
<path d="M1057.73 116H1049.29C1048.7 116 1048.24 116.512 1048.3 117.102L1052.68 160L1053.66 194.029C1053.67 194.57 1054.11 195 1054.66 195H1064.53C1065.14 195 1065.61 194.461 1065.52 193.859L1060.68 160L1058.73 116.955C1058.7 116.421 1058.26 116 1057.73 116Z" fill="#216E7A"/>
<path d="M1078.16 146L1068.54 146C1067.95 146 1067.49 146.505 1067.54 147.091L1069.62 169.852L1069.62 190.387C1069.62 190.982 1070.13 191.445 1070.72 191.382L1080.98 190.286C1081.55 190.225 1081.95 189.698 1081.86 189.132L1078.7 169.59C1078.69 169.53 1078.68 169.47 1078.69 169.409L1079.16 147.021C1079.17 146.461 1078.72 146 1078.16 146Z" fill="#216E7A"/>
<path d="M1064.23 201H1055.79C1055.2 201 1054.74 201.512 1054.8 202.102L1059.18 244.917C1059.18 244.972 1059.18 245.028 1059.18 245.083L1058.25 259.436C1058.22 260.012 1058.67 260.5 1059.25 260.5H1068.97C1069.6 260.5 1070.07 259.927 1069.95 259.31L1067.2 245.072C1067.19 245.024 1067.18 244.976 1067.18 244.927L1065.23 201.955C1065.2 201.421 1064.76 201 1064.23 201Z" fill="#216E7A"/>
<path d="M1035.88 219.387C1041.7 215.918 1050.04 204.294 1050.65 195.498C1050.69 194.947 1050.24 194.602 1049.78 194.905C1046.15 197.286 1034.94 209.667 1034.64 218.656C1034.62 219.327 1035.31 219.731 1035.88 219.387Z" fill="#216E7A"/>
<path d="M1032 186.18C1034.14 192.385 1042.42 193.413 1048.19 193.159C1048.56 193.143 1048.92 192.907 1048.9 192.534C1048.75 189.604 1039.19 185.553 1032.9 185.052C1032.27 185.001 1031.8 185.583 1032 186.18Z" fill="#216E7A"/>
<path d="M1064.49 133.495C1071.74 131.936 1084.07 122.974 1086.98 114.549C1087.16 114.027 1086.83 113.558 1086.29 113.696C1081.83 114.846 1066.05 123.745 1063.51 132.456C1063.32 133.078 1063.85 133.631 1064.49 133.495Z" fill="#216E7A"/>
<path d="M1164.64 160.3C1160.26 166.293 1147.06 173.912 1138.17 173.142C1137.62 173.095 1137.33 172.597 1137.68 172.165C1140.54 168.558 1155.09 157.759 1164.09 158.981C1164.73 159.068 1165.02 159.777 1164.64 160.3Z" fill="#216E7A"/>
<path d="M1177.27 55.9241C1169.47 62.939 1148.46 69.3555 1137.1 64.9756C1136.59 64.777 1136.41 64.2072 1136.83 63.8451C1141.28 59.9873 1165.8 49.189 1177.07 54.4862C1177.64 54.7562 1177.74 55.4998 1177.27 55.9241Z" fill="#216E7A"/>
<path d="M1144.92 33.2697C1145.43 41.4772 1139.6 57.124 1131.67 62.1721C1131.2 62.4687 1130.66 62.2597 1130.64 61.7076C1130.51 56.7723 1135.31 37.2227 1143.68 32.5734C1144.23 32.2654 1144.88 32.6369 1144.92 33.2697Z" fill="#216E7A"/>
<path d="M1159.73 87.9074C1155.99 79.9922 1143.62 68.8142 1135.18 68.7566C1134.63 68.7528 1134.27 69.2341 1134.52 69.726C1136.86 74.2996 1150.53 89.7531 1159.07 89.1144C1159.67 89.0698 1159.99 88.4476 1159.73 87.9074Z" fill="#216E7A"/>
<path d="M1099.95 29.6021L1089.46 29L1091.43 73.1856L1090.42 108.185L1102.4 108.874L1099.42 73.6444L1099.95 29.6021Z" fill="#216E7A"/>
<path d="M1130.63 1.69669L1120.27 0L1117.6 44.1489L1112.93 78.8505L1124.77 80.7896L1125.5 45.4416L1130.63 1.69669Z" fill="#216E7A"/>
<path d="M1142.57 94.5294L1129.03 92L1125.38 136.111L1119.15 170.577L1134.63 173.468L1135.7 138.038L1142.57 94.5294Z" fill="#216E7A"/>
<path d="M1100.61 114.78L1092.18 114.296C1091.59 114.262 1091.1 114.747 1091.13 115.339L1093.05 158.419L1092.07 192.447C1092.05 192.988 1092.47 193.443 1093.01 193.474L1102.87 194.04C1103.47 194.075 1103.97 193.564 1103.92 192.958L1101.03 158.877L1101.55 115.791C1101.55 115.256 1101.14 114.811 1100.61 114.78Z" fill="#216E7A"/>
<path d="M1122.37 86.4756L1114.04 85.1123C1113.46 85.0166 1112.92 85.4474 1112.88 86.0388L1110.28 129.082L1105.74 162.821C1105.67 163.357 1106.04 163.853 1106.57 163.941L1116.32 165.537C1116.92 165.635 1117.46 165.179 1117.48 164.57L1118.17 130.375L1123.2 87.5791C1123.26 87.0481 1122.9 86.562 1122.37 86.4756Z" fill="#216E7A"/>
<path d="M1131.77 179.042L1120.28 176.895C1119.68 176.784 1119.11 177.219 1119.06 177.819L1115.5 220.796L1109.36 257.121C1109.26 257.683 1109.66 258.196 1110.23 258.247L1123.11 259.403C1123.69 259.455 1124.21 259.007 1124.23 258.428L1125.82 222.723L1132.54 180.144C1132.63 179.622 1132.29 179.139 1131.77 179.042Z" fill="#216E7A"/>
<path d="M1102.24 200.014L1093.8 199.529C1093.21 199.495 1092.71 199.979 1092.74 200.571L1094.18 233.928C1094.18 233.976 1094.18 234.024 1094.18 234.072L1091.79 257.501C1091.73 258.052 1092.13 258.544 1092.68 258.598L1105.49 259.852C1106.13 259.915 1106.67 259.366 1106.58 258.728L1103.27 233.325L1103.18 201.009C1103.18 200.48 1102.76 200.044 1102.24 200.014Z" fill="#216E7A"/>
<path d="M1074.52 86.2623C1071.88 94.0961 1080.07 102.718 1086.39 107.704C1086.68 107.93 1087.09 107.996 1087.33 107.722C1089.68 105.043 1082.34 92.0469 1075.96 85.9318C1075.49 85.4782 1074.73 85.6413 1074.52 86.2623Z" fill="#216E7A"/>
<path d="M1152.78 199.041C1145.2 198.513 1140.24 188.26 1137.84 180.912C1137.73 180.569 1137.81 180.158 1138.15 180.044C1141.25 179.005 1150.23 190.015 1153.62 197.812C1153.88 198.421 1153.45 199.088 1152.78 199.041Z" fill="#216E7A"/>
<path d="M1080.52 195.459L1070.9 195.459C1070.31 195.459 1069.85 195.964 1069.9 196.549L1071.98 219.311L1071.98 258.887C1071.98 259.482 1072.49 259.945 1073.08 259.882L1083.41 258.778C1083.95 258.72 1084.35 258.241 1084.3 257.7L1081.04 218.959L1081.52 196.48C1081.53 195.919 1081.08 195.459 1080.52 195.459Z" fill="#216E7A"/>
<circle cx="1757.07" cy="266.214" r="65.0658" fill="#216E7A"/>
<circle cx="1757.07" cy="221.066" r="65.0658" fill="#216E7A"/>
<rect x="1746.47" y="267.974" width="15.1316" height="118.026" rx="7.56579" fill="#1D6874"/>
<circle cx="449.066" cy="150.214" r="65.0658" fill="#216E7A"/>
<circle cx="449.066" cy="105.066" r="65.0658" fill="#216E7A"/>
<rect x="438.474" y="151.974" width="15.1316" height="118.026" rx="7.56579" fill="#1D6874"/>
<defs>
<filter id="filter0_d_217_1333" x="762" y="286" width="396" height="92" filterUnits="userSpaceOnUse" color-interpolation-filters="sRGB">
<feFlood flood-opacity="0" result="BackgroundImageFix"/>
<feColorMatrix in="SourceAlpha" type="matrix" values="0 0 0 0 0 0 0 0 0 0 0 0 0 0 0 0 0 0 127 0" result="hardAlpha"/>
<feOffset dy="2"/>
<feGaussianBlur stdDeviation="10"/>
<feColorMatrix type="matrix" values="0 0 0 0 0.72549 0 0 0 0 0.835294 0 0 0 0 0.85098 0 0 0 0.6 0"/>
<feBlend mode="normal" in2="BackgroundImageFix" result="effect1_dropShadow_217_1333"/>
<feBlend mode="normal" in="SourceGraphic" in2="effect1_dropShadow_217_1333" result="shape"/>
</filter>
</defs>
</svg>
